<mxfile host="65bd71144e">
    <diagram name="Page-1" id="55a83fd1-7818-8e21-69c5-c3457e3827bb">
        <mxGraphModel dx="103" dy="246" grid="1" gridSize="10" guides="1" tooltips="1" connect="1" arrows="1" fold="1" page="1" pageScale="1" pageWidth="1100" pageHeight="850" background="none" math="0" shadow="0">
            <root>
                <mxCell id="0"/>
                <mxCell id="1" parent="0"/>
                <mxCell id="69ecfefc5c41e42c-18" value="BのIPを聞く。&lt;br&gt;自分のIPを登録する。" style="edgeStyle=none;rounded=0;html=1;labelBackgroundColor=none;endArrow=none;strokeWidth=2;fontFamily=Verdana;fontSize=22;exitX=1;exitY=0.5;exitDx=0;exitDy=0;" parent="1" source="69ecfefc5c41e42c-9" edge="1">
                    <mxGeometry relative="1" as="geometry">
                        <mxPoint x="510" y="465" as="sourcePoint"/>
                        <mxPoint x="470" y="330" as="targetPoint"/>
                    </mxGeometry>
                </mxCell>
                <mxCell id="69ecfefc5c41e42c-9" value="ClientA" style="image;html=1;labelBackgroundColor=#ffffff;image=img/lib/clip_art/computers/Netbook_128x128.png;rounded=1;shadow=0;comic=0;strokeColor=#000000;strokeWidth=2;fillColor=#FFFFFF;fontSize=22;fontColor=#000000;" parent="1" vertex="1">
                    <mxGeometry x="160" y="290" width="80" height="80" as="geometry"/>
                </mxCell>
                <mxCell id="aRuAZTP1Up0A8y16akKQ-1" value="&lt;font style=&quot;font-size: 18px;&quot;&gt;SignalingServer&lt;/font&gt;" style="image;html=1;image=img/lib/clip_art/computers/Server_Rack_128x128.png" parent="1" vertex="1">
                    <mxGeometry x="460" y="300" width="80" height="80" as="geometry"/>
                </mxCell>
                <mxCell id="aRuAZTP1Up0A8y16akKQ-4" value="ClientB" style="image;html=1;labelBackgroundColor=#ffffff;image=img/lib/clip_art/computers/Netbook_128x128.png;rounded=1;shadow=0;comic=0;strokeColor=#000000;strokeWidth=2;fillColor=#FFFFFF;fontSize=22;fontColor=#000000;" parent="1" vertex="1">
                    <mxGeometry x="770" y="300" width="80" height="80" as="geometry"/>
                </mxCell>
                <mxCell id="aRuAZTP1Up0A8y16akKQ-7" value="AのIPを聞く&lt;br&gt;自分のIPを登録" style="edgeStyle=none;rounded=0;html=1;labelBackgroundColor=none;endArrow=none;strokeWidth=2;fontFamily=Verdana;fontSize=22;exitX=1;exitY=0.5;exitDx=0;exitDy=0;" parent="1" edge="1">
                    <mxGeometry x="0.0435" relative="1" as="geometry">
                        <mxPoint x="540" y="336" as="sourcePoint"/>
                        <mxPoint x="770" y="336" as="targetPoint"/>
                        <Array as="points">
                            <mxPoint x="680" y="336"/>
                        </Array>
                        <mxPoint as="offset"/>
                    </mxGeometry>
                </mxCell>
                <mxCell id="aRuAZTP1Up0A8y16akKQ-12" value="&lt;font style=&quot;font-size: 24px;&quot;&gt;BのIPを聞く&lt;/font&gt;" style="edgeStyle=orthogonalEdgeStyle;rounded=0;orthogonalLoop=1;jettySize=auto;html=1;exitX=0;exitY=0.5;exitDx=0;exitDy=0;" parent="1" source="aRuAZTP1Up0A8y16akKQ-9" edge="1">
                    <mxGeometry relative="1" as="geometry">
                        <mxPoint x="200" y="400" as="targetPoint"/>
                    </mxGeometry>
                </mxCell>
                <mxCell id="aRuAZTP1Up0A8y16akKQ-13" value="&lt;font style=&quot;font-size: 24px;&quot;&gt;通信リクエスト&lt;/font&gt;" style="edgeStyle=orthogonalEdgeStyle;rounded=0;orthogonalLoop=1;jettySize=auto;html=1;exitX=1;exitY=0.5;exitDx=0;exitDy=0;" parent="1" source="aRuAZTP1Up0A8y16akKQ-9" edge="1">
                    <mxGeometry relative="1" as="geometry">
                        <mxPoint x="810" y="420" as="targetPoint"/>
                    </mxGeometry>
                </mxCell>
                <mxCell id="aRuAZTP1Up0A8y16akKQ-9" value="ClientC&lt;br&gt;(AのIPは知っている)" style="image;html=1;labelBackgroundColor=#ffffff;image=img/lib/clip_art/computers/Netbook_128x128.png;rounded=1;shadow=0;comic=0;strokeColor=#000000;strokeWidth=2;fillColor=#FFFFFF;fontSize=22;fontColor=#000000;" parent="1" vertex="1">
                    <mxGeometry x="460" y="500" width="80" height="80" as="geometry"/>
                </mxCell>
            </root>
        </mxGraphModel>
    </diagram>
</mxfile>